<svg xmlns="http://www.w3.org/2000/svg" version="1.1" xmlns:xlink="http://www.w3.org/1999/xlink" xmlns:svgjs="http://svgjs.dev/svgjs" viewBox="0 0 800 800" opacity="1" width="800" height="800"><g stroke-width="0.5" stroke="hsla(0, 0%, 89%, 1.00)" fill="none"><rect width="72.72727272727273" height="72.72727272727273" x="0" y="0"></rect><rect width="72.72727272727273" height="72.72727272727273" x="72.72727272727273" y="0"></rect><rect width="72.72727272727273" height="72.72727272727273" x="145.45454545454547" y="0"></rect><rect width="72.72727272727273" height="72.72727272727273" x="218.1818181818182" y="0"></rect><rect width="72.72727272727273" height="72.72727272727273" x="290.90909090909093" y="0"></rect><rect width="72.72727272727273" height="72.72727272727273" x="363.6363636363637" y="0"></rect><rect width="72.72727272727273" height="72.72727272727273" x="436.36363636363643" y="0"></rect><rect width="72.72727272727273" height="72.72727272727273" x="509.0909090909092" y="0"></rect><rect width="72.72727272727273" height="72.72727272727273" x="581.8181818181819" y="0"></rect><rect width="72.72727272727273" height="72.72727272727273" x="654.5454545454546" y="0"></rect><rect width="72.72727272727273" height="72.72727272727273" x="727.2727272727274" y="0"></rect><rect width="72.72727272727273" height="72.72727272727273" x="800.0000000000001" y="0"></rect><rect width="72.72727272727273" height="72.72727272727273" x="0" y="72.72727272727273"></rect><rect width="72.72727272727273" height="72.72727272727273" x="72.72727272727273" y="72.72727272727273"></rect><rect width="72.72727272727273" height="72.72727272727273" x="145.45454545454547" y="72.72727272727273"></rect><rect width="72.72727272727273" height="72.72727272727273" x="218.1818181818182" y="72.72727272727273"></rect><rect width="72.72727272727273" height="72.72727272727273" x="290.90909090909093" y="72.72727272727273"></rect><rect width="72.72727272727273" height="72.72727272727273" x="363.6363636363637" y="72.72727272727273"></rect><rect width="72.72727272727273" height="72.72727272727273" x="436.36363636363643" y="72.72727272727273"></rect><rect width="72.72727272727273" height="72.72727272727273" x="509.0909090909092" y="72.72727272727273"></rect><rect width="72.72727272727273" height="72.72727272727273" x="581.8181818181819" y="72.72727272727273"></rect><rect width="72.72727272727273" height="72.72727272727273" x="654.5454545454546" y="72.72727272727273"></rect><rect width="72.72727272727273" height="72.72727272727273" x="727.2727272727274" y="72.72727272727273"></rect><rect width="72.72727272727273" height="72.72727272727273" x="800.0000000000001" y="72.72727272727273"></rect><rect width="72.72727272727273" height="72.72727272727273" x="0" y="145.45454545454547"></rect><rect width="72.72727272727273" height="72.72727272727273" x="72.72727272727273" y="145.45454545454547"></rect><rect width="72.72727272727273" height="72.72727272727273" x="145.45454545454547" y="145.45454545454547"></rect><rect width="72.72727272727273" height="72.72727272727273" x="218.1818181818182" y="145.45454545454547"></rect><rect width="72.72727272727273" height="72.72727272727273" x="290.90909090909093" y="145.45454545454547"></rect><rect width="72.72727272727273" height="72.72727272727273" x="363.6363636363637" y="145.45454545454547"></rect><rect width="72.72727272727273" height="72.72727272727273" x="436.36363636363643" y="145.45454545454547"></rect><rect width="72.72727272727273" height="72.72727272727273" x="509.0909090909092" y="145.45454545454547"></rect><rect width="72.72727272727273" height="72.72727272727273" x="581.8181818181819" y="145.45454545454547"></rect><rect width="72.72727272727273" height="72.72727272727273" x="654.5454545454546" y="145.45454545454547"></rect><rect width="72.72727272727273" height="72.72727272727273" x="727.2727272727274" y="145.45454545454547"></rect><rect width="72.72727272727273" height="72.72727272727273" x="800.0000000000001" y="145.45454545454547"></rect><rect width="72.72727272727273" height="72.72727272727273" x="0" y="218.1818181818182"></rect><rect width="72.72727272727273" height="72.72727272727273" x="72.72727272727273" y="218.1818181818182"></rect><rect width="72.72727272727273" height="72.72727272727273" x="145.45454545454547" y="218.1818181818182"></rect><rect width="72.72727272727273" height="72.72727272727273" x="218.1818181818182" y="218.1818181818182"></rect><rect width="72.72727272727273" height="72.72727272727273" x="290.90909090909093" y="218.1818181818182"></rect><rect width="72.72727272727273" height="72.72727272727273" x="363.6363636363637" y="218.1818181818182"></rect><rect width="72.72727272727273" height="72.72727272727273" x="436.36363636363643" y="218.1818181818182"></rect><rect width="72.72727272727273" height="72.72727272727273" x="509.0909090909092" y="218.1818181818182"></rect><rect width="72.72727272727273" height="72.72727272727273" x="581.8181818181819" y="218.1818181818182"></rect><rect width="72.72727272727273" height="72.72727272727273" x="654.5454545454546" y="218.1818181818182"></rect><rect width="72.72727272727273" height="72.72727272727273" x="727.2727272727274" y="218.1818181818182"></rect><rect width="72.72727272727273" height="72.72727272727273" x="800.0000000000001" y="218.1818181818182"></rect><rect width="72.72727272727273" height="72.72727272727273" x="0" y="290.90909090909093"></rect><rect width="72.72727272727273" height="72.72727272727273" x="72.72727272727273" y="290.90909090909093"></rect><rect width="72.72727272727273" height="72.72727272727273" x="145.45454545454547" y="290.90909090909093"></rect><rect width="72.72727272727273" height="72.72727272727273" x="218.1818181818182" y="290.90909090909093"></rect><rect width="72.72727272727273" height="72.72727272727273" x="290.90909090909093" y="290.90909090909093"></rect><rect width="72.72727272727273" height="72.72727272727273" x="363.6363636363637" y="290.90909090909093"></rect><rect width="72.72727272727273" height="72.72727272727273" x="436.36363636363643" y="290.90909090909093"></rect><rect width="72.72727272727273" height="72.72727272727273" x="509.0909090909092" y="290.90909090909093"></rect><rect width="72.72727272727273" height="72.72727272727273" x="581.8181818181819" y="290.90909090909093"></rect><rect width="72.72727272727273" height="72.72727272727273" x="654.5454545454546" y="290.90909090909093"></rect><rect width="72.72727272727273" height="72.72727272727273" x="727.2727272727274" y="290.90909090909093"></rect><rect width="72.72727272727273" height="72.72727272727273" x="800.0000000000001" y="290.90909090909093"></rect><rect width="72.72727272727273" height="72.72727272727273" x="0" y="363.6363636363637"></rect><rect width="72.72727272727273" height="72.72727272727273" x="72.72727272727273" y="363.6363636363637"></rect><rect width="72.72727272727273" height="72.72727272727273" x="145.45454545454547" y="363.6363636363637"></rect><rect width="72.72727272727273" height="72.72727272727273" x="218.1818181818182" y="363.6363636363637"></rect><rect width="72.72727272727273" height="72.72727272727273" x="290.90909090909093" y="363.6363636363637"></rect><rect width="72.72727272727273" height="72.72727272727273" x="363.6363636363637" y="363.6363636363637"></rect><rect width="72.72727272727273" height="72.72727272727273" x="436.36363636363643" y="363.6363636363637"></rect><rect width="72.72727272727273" height="72.72727272727273" x="509.0909090909092" y="363.6363636363637"></rect><rect width="72.72727272727273" height="72.72727272727273" x="581.8181818181819" y="363.6363636363637"></rect><rect width="72.72727272727273" height="72.72727272727273" x="654.5454545454546" y="363.6363636363637"></rect><rect width="72.72727272727273" height="72.72727272727273" x="727.2727272727274" y="363.6363636363637"></rect><rect width="72.72727272727273" height="72.72727272727273" x="800.0000000000001" y="363.6363636363637"></rect><rect width="72.72727272727273" height="72.72727272727273" x="0" y="436.36363636363643"></rect><rect width="72.72727272727273" height="72.72727272727273" x="72.72727272727273" y="436.36363636363643"></rect><rect width="72.72727272727273" height="72.72727272727273" x="145.45454545454547" y="436.36363636363643"></rect><rect width="72.72727272727273" height="72.72727272727273" x="218.1818181818182" y="436.36363636363643"></rect><rect width="72.72727272727273" height="72.72727272727273" x="290.90909090909093" y="436.36363636363643"></rect><rect width="72.72727272727273" height="72.72727272727273" x="363.6363636363637" y="436.36363636363643"></rect><rect width="72.72727272727273" height="72.72727272727273" x="436.36363636363643" y="436.36363636363643"></rect><rect width="72.72727272727273" height="72.72727272727273" x="509.0909090909092" y="436.36363636363643"></rect><rect width="72.72727272727273" height="72.72727272727273" x="581.8181818181819" y="436.36363636363643"></rect><rect width="72.72727272727273" height="72.72727272727273" x="654.5454545454546" y="436.36363636363643"></rect><rect width="72.72727272727273" height="72.72727272727273" x="727.2727272727274" y="436.36363636363643"></rect><rect width="72.72727272727273" height="72.72727272727273" x="800.0000000000001" y="436.36363636363643"></rect><rect width="72.72727272727273" height="72.72727272727273" x="0" y="509.0909090909092"></rect><rect width="72.72727272727273" height="72.72727272727273" x="72.72727272727273" y="509.0909090909092"></rect><rect width="72.72727272727273" height="72.72727272727273" x="145.45454545454547" y="509.0909090909092"></rect><rect width="72.72727272727273" height="72.72727272727273" x="218.1818181818182" y="509.0909090909092"></rect><rect width="72.72727272727273" height="72.72727272727273" x="290.90909090909093" y="509.0909090909092"></rect><rect width="72.72727272727273" height="72.72727272727273" x="363.6363636363637" y="509.0909090909092"></rect><rect width="72.72727272727273" height="72.72727272727273" x="436.36363636363643" y="509.0909090909092"></rect><rect width="72.72727272727273" height="72.72727272727273" x="509.0909090909092" y="509.0909090909092"></rect><rect width="72.72727272727273" height="72.72727272727273" x="581.8181818181819" y="509.0909090909092"></rect><rect width="72.72727272727273" height="72.72727272727273" x="654.5454545454546" y="509.0909090909092"></rect><rect width="72.72727272727273" height="72.72727272727273" x="727.2727272727274" y="509.0909090909092"></rect><rect width="72.72727272727273" height="72.72727272727273" x="800.0000000000001" y="509.0909090909092"></rect><rect width="72.72727272727273" height="72.72727272727273" x="0" y="581.8181818181819"></rect><rect width="72.72727272727273" height="72.72727272727273" x="72.72727272727273" y="581.8181818181819"></rect><rect width="72.72727272727273" height="72.72727272727273" x="145.45454545454547" y="581.8181818181819"></rect><rect width="72.72727272727273" height="72.72727272727273" x="218.1818181818182" y="581.8181818181819"></rect><rect width="72.72727272727273" height="72.72727272727273" x="290.90909090909093" y="581.8181818181819"></rect><rect width="72.72727272727273" height="72.72727272727273" x="363.6363636363637" y="581.8181818181819"></rect><rect width="72.72727272727273" height="72.72727272727273" x="436.36363636363643" y="581.8181818181819"></rect><rect width="72.72727272727273" height="72.72727272727273" x="509.0909090909092" y="581.8181818181819"></rect><rect width="72.72727272727273" height="72.72727272727273" x="581.8181818181819" y="581.8181818181819"></rect><rect width="72.72727272727273" height="72.72727272727273" x="654.5454545454546" y="581.8181818181819"></rect><rect width="72.72727272727273" height="72.72727272727273" x="727.2727272727274" y="581.8181818181819"></rect><rect width="72.72727272727273" height="72.72727272727273" x="800.0000000000001" y="581.8181818181819"></rect><rect width="72.72727272727273" height="72.72727272727273" x="0" y="654.5454545454546"></rect><rect width="72.72727272727273" height="72.72727272727273" x="72.72727272727273" y="654.5454545454546"></rect><rect width="72.72727272727273" height="72.72727272727273" x="145.45454545454547" y="654.5454545454546"></rect><rect width="72.72727272727273" height="72.72727272727273" x="218.1818181818182" y="654.5454545454546"></rect><rect width="72.72727272727273" height="72.72727272727273" x="290.90909090909093" y="654.5454545454546"></rect><rect width="72.72727272727273" height="72.72727272727273" x="363.6363636363637" y="654.5454545454546"></rect><rect width="72.72727272727273" height="72.72727272727273" x="436.36363636363643" y="654.5454545454546"></rect><rect width="72.72727272727273" height="72.72727272727273" x="509.0909090909092" y="654.5454545454546"></rect><rect width="72.72727272727273" height="72.72727272727273" x="581.8181818181819" y="654.5454545454546"></rect><rect width="72.72727272727273" height="72.72727272727273" x="654.5454545454546" y="654.5454545454546"></rect><rect width="72.72727272727273" height="72.72727272727273" x="727.2727272727274" y="654.5454545454546"></rect><rect width="72.72727272727273" height="72.72727272727273" x="800.0000000000001" y="654.5454545454546"></rect><rect width="72.72727272727273" height="72.72727272727273" x="0" y="727.2727272727274"></rect><rect width="72.72727272727273" height="72.72727272727273" x="72.72727272727273" y="727.2727272727274"></rect><rect width="72.72727272727273" height="72.72727272727273" x="145.45454545454547" y="727.2727272727274"></rect><rect width="72.72727272727273" height="72.72727272727273" x="218.1818181818182" y="727.2727272727274"></rect><rect width="72.72727272727273" height="72.72727272727273" x="290.90909090909093" y="727.2727272727274"></rect><rect width="72.72727272727273" height="72.72727272727273" x="363.6363636363637" y="727.2727272727274"></rect><rect width="72.72727272727273" height="72.72727272727273" x="436.36363636363643" y="727.2727272727274"></rect><rect width="72.72727272727273" height="72.72727272727273" x="509.0909090909092" y="727.2727272727274"></rect><rect width="72.72727272727273" height="72.72727272727273" x="581.8181818181819" y="727.2727272727274"></rect><rect width="72.72727272727273" height="72.72727272727273" x="654.5454545454546" y="727.2727272727274"></rect><rect width="72.72727272727273" height="72.72727272727273" x="727.2727272727274" y="727.2727272727274"></rect><rect width="72.72727272727273" height="72.72727272727273" x="800.0000000000001" y="727.2727272727274"></rect><rect width="72.72727272727273" height="72.72727272727273" x="0" y="800.0000000000001"></rect><rect width="72.72727272727273" height="72.72727272727273" x="72.72727272727273" y="800.0000000000001"></rect><rect width="72.72727272727273" height="72.72727272727273" x="145.45454545454547" y="800.0000000000001"></rect><rect width="72.72727272727273" height="72.72727272727273" x="218.1818181818182" y="800.0000000000001"></rect><rect width="72.72727272727273" height="72.72727272727273" x="290.90909090909093" y="800.0000000000001"></rect><rect width="72.72727272727273" height="72.72727272727273" x="363.6363636363637" y="800.0000000000001"></rect><rect width="72.72727272727273" height="72.72727272727273" x="436.36363636363643" y="800.0000000000001"></rect><rect width="72.72727272727273" height="72.72727272727273" x="509.0909090909092" y="800.0000000000001"></rect><rect width="72.72727272727273" height="72.72727272727273" x="581.8181818181819" y="800.0000000000001"></rect><rect width="72.72727272727273" height="72.72727272727273" x="654.5454545454546" y="800.0000000000001"></rect><rect width="72.72727272727273" height="72.72727272727273" x="727.2727272727274" y="800.0000000000001"></rect><rect width="72.72727272727273" height="72.72727272727273" x="800.0000000000001" y="800.0000000000001"></rect></g></svg>